<svg xmlns="http://www.w3.org/2000/svg" version="1.1" xmlns:xlink="http://www.w3.org/1999/xlink" xmlns:svgjs="http://svgjs.dev/svgjs" width="2000" height="2276" viewBox="0 0 2000 2276"><g transform="matrix(1,0,0,1,0.08869266094973227,0.9214574898785486)"><svg viewBox="0 0 217 247" data-background-color="#ffffff" preserveAspectRatio="xMidYMid meet" height="2276" width="2000" xmlns="http://www.w3.org/2000/svg" xmlns:xlink="http://www.w3.org/1999/xlink"><g id="tight-bounds" transform="matrix(1,0,0,1,-0.00962315371305067,-0.09999999999999432)"><svg viewBox="0 0 217.01924630742607 247.2" height="247.2" width="217.01924630742607"><g><svg viewBox="0 0 426.1984951037086 485.46969811327574" height="247.2" width="217.01924630742607"><g><rect width="397.4975999999999" height="5.805559263533378" x="14.35044755185433" y="345.1070037551604" fill="#3d9970" opacity="1" stroke-width="0" stroke="transparent" fill-opacity="1" class="rect-r$-0" data-fill-palette-color="secondary" rx="1%" id="r$-0" data-palette-color="#3d9970"></rect></g><g transform="matrix(1,0,0,1,15.3392475518543,366.1103621378911)"><svg viewBox="0 0 395.52 119.35933597538461" height="119.35933597538461" width="395.52"><g id="textblocktransform"><svg viewBox="0 0 395.52 119.35933597538461" height="119.35933597538461" width="395.52" id="textblock"><g><svg viewBox="0 0 395.52 64.37672240802675" height="64.37672240802675" width="395.52"><g transform="matrix(1,0,0,1,0,0)"><svg width="395.52" viewBox="1.75 -35.75 224.24 36.5" height="64.37672240802675" data-palette-color="#ed1703"><path d="M14.75 0.75Q11.2 0.75 8.1-0.85L8.1-0.85Q6.7-1.55 5.75-2.5L5.75-2.5Q5.05-1.35 4-0.45L4-0.45Q3.1 0.2 3 0.25L3 0.25 1.75 0.25 1.75-9.25 3.75-9.25Q4.5-6.8 5.85-4.85L5.85-4.85Q8.9-0.5 13.75-0.5L13.75-0.5Q16.6-0.5 18.3-2.2 20-3.9 20-6.75L20-6.75Q20-8.4 19.03-9.7 18.05-11 16.6-12 15.15-13 12.55-14.5L12.55-14.5Q9.25-16.35 7.2-17.85 5.15-19.35 3.7-21.63 2.25-23.9 2.25-27L2.25-27Q2.25-29.45 3.63-31.43 5-33.4 7.75-34.58 10.5-35.75 14.5-35.75L14.5-35.75Q17.4-35.75 20.3-34.1L20.3-34.1Q21.4-33.5 22.5-32.5L22.5-32.5Q23.35-33.8 24.25-34.55L24.25-34.55Q25.15-35.2 25.25-35.25L25.25-35.25 26.5-35.25 26.5-25.75 24.5-25.75Q23.85-28.15 22.55-30.1L22.55-30.1Q21.35-32 19.58-33.25 17.8-34.5 15.5-34.5L15.5-34.5Q13.55-34.5 12.15-32.95 10.75-31.4 10.75-29L10.75-29Q10.75-27.15 11.83-25.68 12.9-24.2 14.48-23.1 16.05-22 18.75-20.45L18.75-20.45Q21.9-18.65 23.85-17.25 25.8-15.85 27.15-13.78 28.5-11.7 28.5-9L28.5-9Q28.5-6.3 26.95-4.08 25.4-1.85 22.3-0.55 19.2 0.75 14.75 0.75L14.75 0.75ZM46.5 0L32.25 0 32.25-0.75 35.25-1.5 35.25-33.5 32.25-34.25 32.25-35 46.5-35 46.5-34.25 43.5-33.5 43.5-18 54.25-18 54.25-33.5 51.25-34.25 51.25-35 65.5-35 65.5-34.25 62.5-33.5 62.5-1.5 65.5-0.75 65.5 0 51.25 0 51.25-0.75 54.25-1.5 54.25-16.75 43.5-16.75 43.5-1.5 46.5-0.75 46.5 0ZM70 0L70-0.75 73-1.5 73-33.5 70-34.25 70-35 83.25-35Q91.75-35 95.5-32.43 99.25-29.85 99.25-25.25L99.25-25.25Q99.25-22.15 97.59-20.23 95.95-18.3 93.34-17.35L93.34-17.35Q90.59-16.3 87.5-16.25L87.5-16.25 87.5-16Q89.34-15.9 90.75-15.45L90.75-15.45Q94.25-14.35 95.5-11.5L95.5-11.5 100-1.5 102.5-0.75 102.5 0 95.5 0Q91.4 0 89.5-4.25L89.5-4.25 84.5-15.5 81.25-15.5 81.25-1.5 84.75-0.75 84.75 0 70 0ZM81.25-16.75L83.25-16.75Q86.75-16.75 88.75-18.95 90.75-21.15 90.75-25.25L90.75-25.25Q90.75-29.35 88.75-31.55 86.75-33.75 83.25-33.75L83.25-33.75 81.25-33.75 81.25-16.75ZM104.99 0L104.99-0.75 107.99-1.5 107.99-33.5 104.99-34.25 104.99-35 131.74-35 131.74-26 130.24-26Q129.29-26.75 128.59-27.9L128.59-27.9Q126.99-30.6 126.99-33.75L126.99-33.75 116.24-33.75 116.24-18 121.99-18Q122.34-19.9 123.29-21.55L123.29-21.55Q123.69-22.3 124.24-23L124.24-23 125.74-23 125.74-11.75 124.24-11.75Q123.69-12.45 123.29-13.2L123.29-13.2Q122.34-14.85 121.99-16.75L121.99-16.75 116.24-16.75 116.24-1.25 127.99-1.25Q127.99-4.4 129.59-7.1L129.59-7.1Q130.29-8.25 131.24-9L131.24-9 132.74-9 132.74 0 104.99 0ZM144.49 0L144.49-0.75 147.49-1.5 147.49-13 137.24-33.5 134.74-34.25 134.74-35 140.99-35Q143.59-35 145.17-33.9 146.74-32.8 147.74-30.75L147.74-30.75 155.14-16 162.74-32.75 158.99-34.25 158.99-35 168.49-35 168.49-34.25 164.49-32.75 155.74-13.5 155.74-1.5 158.74-0.75 158.74 0 144.49 0ZM162.49 0L162.49-0.75 166.49-2.25 180.24-35.5 181.74-35.5 195.99-1.5 198.49-0.75 198.49 0 192.49 0Q189.89 0 188.24-1.18 186.59-2.35 185.79-4.25L185.79-4.25 183.24-10.25 171.29-10.25 167.99-2.25 171.74-0.75 171.74 0 162.49 0ZM177.24-24.65L171.79-11.5 182.74-11.5 177.24-24.65ZM212.24 0.75Q208.69 0.75 205.59-0.85L205.59-0.85Q204.19-1.55 203.24-2.5L203.24-2.5Q202.54-1.35 201.49-0.45L201.49-0.45Q200.59 0.2 200.49 0.25L200.49 0.25 199.24 0.25 199.24-9.25 201.24-9.25Q201.99-6.8 203.34-4.85L203.34-4.85Q206.39-0.5 211.24-0.5L211.24-0.5Q214.09-0.5 215.79-2.2 217.49-3.9 217.49-6.75L217.49-6.75Q217.49-8.4 216.51-9.7 215.54-11 214.09-12 212.64-13 210.04-14.5L210.04-14.5Q206.74-16.35 204.69-17.85 202.64-19.35 201.19-21.63 199.74-23.9 199.74-27L199.74-27Q199.74-29.45 201.11-31.43 202.49-33.4 205.24-34.58 207.99-35.75 211.99-35.75L211.99-35.75Q214.89-35.75 217.79-34.1L217.79-34.1Q218.89-33.5 219.99-32.5L219.99-32.5Q220.84-33.8 221.74-34.55L221.74-34.55Q222.64-35.2 222.74-35.25L222.74-35.25 223.99-35.25 223.99-25.75 221.99-25.75Q221.34-28.15 220.04-30.1L220.04-30.1Q218.84-32 217.06-33.25 215.29-34.5 212.99-34.5L212.99-34.5Q211.04-34.5 209.64-32.95 208.24-31.4 208.24-29L208.24-29Q208.24-27.15 209.31-25.68 210.39-24.2 211.96-23.1 213.54-22 216.24-20.45L216.24-20.45Q219.39-18.65 221.34-17.25 223.29-15.85 224.64-13.78 225.99-11.7 225.99-9L225.99-9Q225.99-6.3 224.44-4.08 222.89-1.85 219.79-0.55 216.69 0.75 212.24 0.75L212.24 0.75Z" opacity="1" transform="matrix(1,0,0,1,0,0)" fill="#ed1703" class="wordmark-text-0" data-fill-palette-color="primary" id="text-0"></path></svg></g></svg></g><g transform="matrix(1,0,0,1,0,79.57452152722408)"><svg viewBox="0 0 395.52 39.78481444816053" height="39.78481444816053" width="395.52"><g transform="matrix(1,0,0,1,0,0)"><svg width="395.52" viewBox="2.3 -35.5 361.37 36.35" height="39.78481444816053" data-palette-color="#3d9970"><path d="M11.2-34.65Q17.65-34.65 21.05-31.8 24.45-28.95 24.45-23.4L24.45-23.4Q24.45-17.6 21.2-14.63 17.95-11.65 12-11.65L12-11.65 10.15-11.65 10.15 0 2.3 0 2.3-34.65 11.2-34.65ZM11.35-17.35Q14.05-17.35 15.23-18.73 16.4-20.1 16.4-23.4L16.4-23.4Q16.4-26.3 15.28-27.68 14.15-29.05 11.45-29.05L11.45-29.05 10.15-29.05 10.15-17.35 11.35-17.35ZM58.28-35.5Q64.68-35.5 68.05-30.98 71.43-26.45 71.43-17.35L71.43-17.35Q71.43-8.35 68.03-3.75 64.63 0.85 58.28 0.85L58.28 0.85Q51.93 0.85 48.55-3.68 45.18-8.2 45.18-17.35L45.18-17.35Q45.18-26.35 48.55-30.93 51.93-35.5 58.28-35.5L58.28-35.5ZM58.28-29.75Q55.68-29.75 54.5-26.93 53.33-24.1 53.33-17.35L53.33-17.35Q53.33-12.65 53.85-9.95 54.38-7.25 55.45-6.08 56.53-4.9 58.28-4.9L58.28-4.9Q60.08-4.9 61.15-6.05 62.23-7.2 62.75-9.93 63.28-12.65 63.28-17.35L63.28-17.35Q63.28-24.15 62.1-26.95 60.93-29.75 58.28-29.75L58.28-29.75ZM117.96 0L109.61 0 103.96-13.35 103.71-13.35 101.81-13.35 101.81 0 93.96 0 93.96-34.65 103.21-34.65Q116.11-34.65 116.11-24.15L116.11-24.15Q116.11-21.1 114.83-18.65 113.56-16.2 110.86-14.85L110.86-14.85 117.96 0ZM101.81-18.8L103.41-18.8Q105.91-18.8 107.01-20.08 108.11-21.35 108.11-24.15L108.11-24.15Q108.11-26.7 106.93-27.9 105.76-29.1 103.16-29.1L103.16-29.1 101.81-29.1 101.81-18.8ZM136.58-34.65L158.93-34.65 158.13-28.65 151.48-28.65 151.48 0 143.63 0 143.63-28.65 136.58-28.65 136.58-34.65ZM187.81 0L179.96 0 179.96-34.65 197.66-34.65 196.86-29.05 187.81-29.05 187.81-19.55 195.76-19.55 195.76-13.9 187.81-13.9 187.81 0ZM231.19-35.5Q237.59-35.5 240.96-30.98 244.34-26.45 244.34-17.35L244.34-17.35Q244.34-8.35 240.94-3.75 237.54 0.85 231.19 0.85L231.19 0.85Q224.84 0.85 221.46-3.68 218.09-8.2 218.09-17.35L218.09-17.35Q218.09-26.35 221.46-30.93 224.84-35.5 231.19-35.5L231.19-35.5ZM231.19-29.75Q228.59-29.75 227.41-26.93 226.24-24.1 226.24-17.35L226.24-17.35Q226.24-12.65 226.76-9.95 227.29-7.25 228.36-6.08 229.44-4.9 231.19-4.9L231.19-4.9Q232.99-4.9 234.06-6.05 235.14-7.2 235.66-9.93 236.19-12.65 236.19-17.35L236.19-17.35Q236.19-24.15 235.01-26.95 233.84-29.75 231.19-29.75L231.19-29.75ZM266.87-34.65L274.72-34.65 274.72-6.2 285.62-6.2 284.82 0 266.87 0 266.87-34.65ZM306.99-34.65L314.84-34.65 314.84 0 306.99 0 306.99-34.65ZM350.52-35.5Q356.92-35.5 360.3-30.98 363.67-26.45 363.67-17.35L363.67-17.35Q363.67-8.35 360.27-3.75 356.87 0.85 350.52 0.85L350.52 0.85Q344.17 0.85 340.8-3.68 337.42-8.2 337.42-17.35L337.42-17.35Q337.42-26.35 340.8-30.93 344.17-35.5 350.52-35.5L350.52-35.5ZM350.52-29.75Q347.92-29.75 346.75-26.93 345.57-24.1 345.57-17.35L345.57-17.35Q345.57-12.65 346.1-9.95 346.62-7.25 347.7-6.08 348.77-4.9 350.52-4.9L350.52-4.9Q352.32-4.9 353.4-6.05 354.47-7.2 355-9.93 355.52-12.65 355.52-17.35L355.52-17.35Q355.52-24.15 354.35-26.95 353.17-29.75 350.52-29.75L350.52-29.75Z" opacity="1" transform="matrix(1,0,0,1,0,0)" fill="#3d9970" class="slogan-text-1" data-fill-palette-color="secondary" id="text-1"></path></svg></g></svg></g></svg></g></svg></g><g><svg viewBox="0 0 426.1984951037086 329.9092046359631" height="329.9092046359631" width="426.1984951037086"><g><svg xmlns="http://www.w3.org/2000/svg" xmlns:xlink="http://www.w3.org/1999/xlink" version="1.1" x="8" y="0" viewBox="0 9.786 100.00034525290006 80.42699999999999" enable-background="new 0 0 100 100" xml:space="preserve" width="410.1984951037086" height="329.9092046359631" class="icon-icon-0" data-fill-palette-color="accent" id="icon-0"></svg></g></svg></g><g></g></svg></g><defs></defs><mask id="f580e32d-aaef-4bb3-9458-a8c16457c9ac"><g id="SvgjsG1636"><svg viewBox="0 0 217.01924630742607 247.2" height="247.2" width="217.01924630742607"><g><svg viewBox="0 0 426.1984951037086 485.46969811327574" height="247.2" width="217.01924630742607"><g></g><g transform="matrix(1,0,0,1,15.3392475518543,366.1103621378911)"><svg viewBox="0 0 395.52 119.35933597538461" height="119.35933597538461" width="395.52"><g id="SvgjsG1634"><svg viewBox="0 0 395.52 119.35933597538461" height="119.35933597538461" width="395.52" id="SvgjsSvg1633"><g><svg viewBox="0 0 395.52 64.37672240802675" height="64.37672240802675" width="395.52"><g transform="matrix(1,0,0,1,0,0)"><svg width="395.52" viewBox="1.75 -35.75 224.24 36.5" height="64.37672240802675" data-palette-color="#ed1703"></svg></g></svg></g><g transform="matrix(1,0,0,1,0,79.57452152722408)"><svg viewBox="0 0 395.52 39.78481444816053" height="39.78481444816053" width="395.52"><g transform="matrix(1,0,0,1,0,0)"><svg width="395.52" viewBox="2.3 -35.5 361.37 36.35" height="39.78481444816053" data-palette-color="#3d9970"></svg></g></svg></g></svg></g></svg></g><g><svg viewBox="0 0 426.1984951037086 329.9092046359631" height="329.9092046359631" width="426.1984951037086"><g><svg xmlns="http://www.w3.org/2000/svg" xmlns:xlink="http://www.w3.org/1999/xlink" version="1.1" x="8" y="0" viewBox="0 9.786 100.00034525290006 80.42699999999999" enable-background="new 0 0 100 100" xml:space="preserve" width="410.1984951037086" height="329.9092046359631" class="icon-icon-0" data-fill-palette-color="accent" id="SvgjsSvg1630"><path d="M49.942 52.994c13.552-0.488 27.103-0.977 40.653-1.465-2.527-4.177-3.159-7.831-7.989-8.461-7.229-0.94-14.458-1.883-21.688-2.826-14.023-1.827-28.05-3.654-42.075-5.48C20.101 36.792 39.724 53.361 49.942 52.994z" fill="white"></path><path d="M0 9.786c4.391 7.257 26.615 23.072 32.953 23.886 17.33 2.231 34.657 4.46 51.986 6.688-3.393-5.607-4.18-9.35-10.312-10.959-8.904-2.341-17.812-4.683-26.717-7.023C31.94 18.182 15.97 13.984 0 9.786z" fill="white"></path><path d="M63.108 66.207c10.413-2.219 20.826-4.439 31.241-6.66-2.028-3.346-2.034-5.359-5.827-5.189-6.158 0.273-12.314 0.549-18.471 0.822-11.343 0.506-22.686 1.014-34.028 1.518C37.298 58.064 54.94 67.947 63.108 66.207z" fill="white"></path><path d="M87.682 90.213c5.725-3.719 7.262-7.721 10.519-13.807 3.651-6.824 1.257-7.844-2.821-14.596-0.417-0.688-5.842 0.232-6.453 0.904-0.745 0.818-0.248 5.455-0.294 6.496C88.315 76.211 87.998 83.213 87.682 90.213z" fill="white"></path><path d="M86.35 63.447c-3.795 0.809-8.604 0.191-9.572 4.229-1.373 5.736-2.746 11.475-4.12 17.211C81.904 82.678 86.028 71.582 86.35 63.447z" fill="white"></path><path d="M74.666 66.121c-9.148 1.953-8.956 4.611-12.879 13.18C68.007 78.711 73.811 71.941 74.666 66.121z" fill="white"></path></svg></g></svg></g><g></g></svg></g><defs><mask></mask></defs></svg></g></mask><linearGradient x1="0" x2="1" y1="0.578" y2="0.595" id="2ea4fa03-266e-4887-8fc0-2c4dff5f2036"><stop stop-color="#6ee2f5" offset="0"></stop><stop stop-color="#6454f0" offset="1"></stop></linearGradient><rect width="217.01924630742607" height="247.20000000000002" fill="url(#2ea4fa03-266e-4887-8fc0-2c4dff5f2036)" mask="url(#f580e32d-aaef-4bb3-9458-a8c16457c9ac)" data-fill-palette-color="accent"></rect></svg><rect width="217.01924630742607" height="247.2" fill="none" stroke="none" visibility="hidden"></rect></g></svg></g></svg>